<svg id="Слой_1" data-name="Слой 1" xmlns="http://www.w3.org/2000/svg" viewBox="0 0 365.69217 603.94615"><defs><style>.cls-1,.cls-3{fill:none;}.cls-2{fill:#ebebeb;}.cls-3{stroke:#000;stroke-linecap:round;stroke-linejoin:round;stroke-width:0;}.cls-4{fill:#fff;}</style></defs><title>Artboard 48 copy 10</title><path class="cls-1" d="M109.90078,432.55467a7.60138,7.60138,0,0,1-1.936-.21093c.63672.3833,1.28051.74609,1.929,1.09521C109.88833,432.86669,109.90078,432.55467,109.90078,432.55467Z"/><path class="cls-1" d="M210.93081,247.62108c1.09448-.543,1.96021-1.01025,2.53369-1.33154-.09765-.03076-.199-.064-.29638-.09522C212.42813,246.69628,211.68057,247.16405,210.93081,247.62108Z"/><path class="cls-1" d="M118.79409,262.10448c.03052-.18555.0625-.37305.093-.55908-1.66333,5.33642-4.209,13.42773-6.48462,20.9082,1.106-2.63818,2.36621-5.79785,3.82617-9.52393A53.20413,53.20413,0,0,0,118.79409,262.10448Z"/><path class="cls-1" d="M185.37612,251.52635c-3.21289-1.72558-4.98339-4.95214-4.98339-9.085a10.67368,10.67368,0,0,1,.5061-3.23144c-6.77564.55224-10.51514,2.90576-15.83325,7.46191a46.40735,46.40735,0,0,0,24.03467,5.82227A9.53011,9.53011,0,0,1,185.37612,251.52635Z"/><path class="cls-1" d="M169.08608,358.01854c-4.62011-.56836-8.92382-1.13769-13.08593-1.69043-23.55225-3.12744-39.33985-5.19629-57.96094,1.16162a41.20293,41.20293,0,0,1,4.919,3.35694c5.27343,4.001,11.25,8.53515,27.02636,8.53515C144.34316,369.38182,160.81558,363.00975,169.08608,358.01854Z"/><path class="cls-1" d="M196.76187,250.57714a9.05531,9.05531,0,0,1-2.83057,1.40234,44.85512,44.85512,0,0,0,16.7749-6.56055q-3.11205-.97119-5.98388-1.814c-1.29883-.32422-2.61084-.65186-3.92359-.97852A10.10587,10.10587,0,0,1,196.76187,250.57714Z"/><path class="cls-1" d="M166.61831,242.81493a28.48285,28.48285,0,0,1,5.74194-3.54981A17.33059,17.33059,0,0,0,166.61831,242.81493Z"/><path class="cls-1" d="M95.89566,358.62889l.219-.47851-.6272.22851c-1.37207.52442-2.82129,1.11621-4.291,1.751l-.46436-1.0752c-3.46216,2.19239-6.12964,6.1753-2.6084,14.66651,4.41455,10.644,18.37207,9.688,21.7771,7.91943,8.3999-4.36279,9.158-9.12158,9.03052-11.17822-8.73242-1.61816-13.30933-5.084-17.18213-8.022A31.78084,31.78084,0,0,0,95.89566,358.62889Z"/><path class="cls-1" d="M109.05093,479.04686l-.15039-.52636V441.81542c-4.90869.66162-11.37549,5.01806-16.21875,15.61914-7.09473,15.51269-20.39063,43.65527-22.30469,47.70312l56.5,92.53321,33.43433-72.68848C139.694,515.395,117.00405,491.88719,109.05093,479.04686Z"/><path class="cls-1" d="M298.48355,445.15428l.01953,1.21875c-20.35279,27.36914-69.99683,60.39454-118.33252,78.78711l31.80127,74.793c10.209-8.91992,92.373-80.8125,119.9834-108.29492-1.53028-3.03809-8.2461-16.4209-16.36426-33.32519-6.58838-13.7295-15.22119-22.92823-22.89307-24.55176A37.9401,37.9401,0,0,0,298.48355,445.15428Z"/><path class="cls-1" d="M282.94741,312.9951c-1.23047,17.36231-2.81054,31.22559-6.25,42.124l-.12207.38476c-3.11914,9.89795-8.23486,26.0918-22.58374,40.25684-2.57812,5.04736-27.08423,52.14453-54.178,72.71289-28.64648,21.74609-59.94751,22.4043-75.35937,3.69141a64.76367,64.76367,0,0,1-13.55371-29.24073v35.31006c8.06836,12.86035,30.74414,36.22949,51.14453,45.35156l.03125.01368h16.58691c47.91309-18.07618,97.23828-50.68653,117.78125-77.81543a43.17171,43.17171,0,0,1-6.15722-12.92676c-9.21485-29.65088-4.28443-85.62842-.50928-116.4585A19.45834,19.45834,0,0,1,282.94741,312.9951Z"/><path class="cls-1" d="M327.47378,230.36717c-4.55664-2.81933-10.30176-2.50683-16.61914.90137-21.5,11.57715-23.27441,38.793-23.30566,46.8584l-1.02051.99609-9.42285-.19043-.9795-1.01953c.30371-15.21777-2.50293-39.38476-17.60351-68.10547-6.66992-12.68847-10.10938-25.17382-13.43457-37.24707-4.4209-16.04882-8.59863-31.21777-19.79883-45.94238-37.66553,14.57422-68.15942,22.2334-92.80444,25.37451-1.77906.8584-3.12036,1.5044-3.12036,1.5044s-24.4629,9.22363-38.5647,24.55761c-8.69214,9.45069-17.54321,25.7959-24.55615,38.37452a26.1389,26.1389,0,0,1,10.949-2.22119c11.01172,0,23.6272,5.27392,34.83545,14.34179,3.28271,1.791,4.552,3.84473,6.05664,5.37354.32373.27392.63354.55468.93677.83935,3.92041,3.15186,7.23315,3.8667,16.29028,4.69678a19.19644,19.19644,0,0,1,5.52783.15869c4.939-.83935,12.01636-5.00488,20.3711-8.17187,8.791-7.96143,27.4834-15.15528,37.146-15.15528,19.6377,0,26.36817,9.958,30.71582,20.71778l-.50293.4375c.65332,4.20312-4.10254,7.87988-7.32544,9.28613q2.37195.7954,4.79908,1.63086l-.65235,1.89062q-3.73682-1.29053-7.32348-2.47021c-7.47413,2.56348-27.85352,11.39795-36.67456,15.855-6.12061,3.09277-15.488,6.22559-22.29126,3.70215-5.02539-1.86426-10.01-11.42676-11.83545-14.81348-2.032-3.77051-6.37744-8.541-13.28394-7.625-3.60058.47754-6.25293,1.0332-8.25513,2.21045-.12426.17529-.25976.34082-.37622.523l-.07812.14062c-2.83887,4.50586-3.64746,9.43457-4.50488,14.65235A54.61671,54.61671,0,0,1,118.09,273.65819c-3.55957,9.08691-5.84277,14.60449-7.71289,17.73145-.24756.41308-.64062.99218-1.123,1.70166-.72168,2.54638-1.28515,4.66357-1.59033,6.05957-1.1289,5.16552.70386,10.61132,8.21533,10.98681,7.55176.37744,10.01978,1.8916,13.94336,2.13477,7.10987.44043,10.42676-1.61524,13.55957-2.04492,10.43848-1.43262,16.80127,6.335,18.46729,8.68408,4.5791-2.35742,7.397-7.57373,7.5376-14.34033a12.99449,12.99449,0,0,0-9.24219-12.59375l.63867-1.89453a14.96345,14.96345,0,0,1,10.60352,14.52929c-.19043,9.10645-4.82032,15.74707-12.084,17.33008a15.68927,15.68927,0,0,1-3.373.3623c-.12109,0-.24218-.001-.36328-.0039a19.58539,19.58539,0,0,1-5.90332-1.04395c-4.36548-.188-10.60547-.73535-15.31933,4.02246a15.05261,15.05261,0,0,0-2.2959,4.33594,22.08379,22.08379,0,0,1-3.06348,11.56787c.1814.16748.364.33008.542.51123,2.40625-2.49511,5.85059-3.7705,10.11817-3.68359,9.61133.17383,22.2334,6.99121,33.76074,18.23828l-.23608.24219c3.19409.37842,6.27392.71875,9.39721,1.03418l-.20117,1.99023c-3.26953-.33105-6.48535-.68554-9.831-1.084l-.33594-.03809c-6.87134,4.76758-22.884,11.59912-37.78711,12.80225a22.992,22.992,0,0,0,3.94434,10.4624c8.29516,11.69434,24.92236,7.063,33.293,7.063,7.19874,0,.24463,13.15185-8.32031,11.40185-3.48779-.7124-7.90674-2.312-13.25146-3.82959.56006.271,1.12207.53321,1.67529.83155l-.94922,1.75976c-13.22656-7.13379-28.668-6.04-38.707-2.63379l-.19849-.585c-9.89721,4.80616-15.04663,15.24854-8.09692,22.14991,8.57861,8.51953,19.1438-.28565,22.75488-.07276,5.31446.313,6.3003,6.1001,18.24659,8.66113,10.1831,2.18311,28.03466,1.55664,38.04418-.0166,16.96753-2.6665,31.20362-11.13281,35.90162-13.375,5.25-2.50537,20.76684-10.29541,29.43628-14.65918,17.42065-14.69482,23.127-32.79687,26.48413-43.45117l.12109-.38476c3.51465-11.13379,5.0625-25.52149,6.30469-43.69922l1.71-.63379a17.144,17.144,0,0,0,8.375,4.54c10.1582,2.37988,24.18164-2.55371,31.335-16.59864,12.62793-24.76367,17.47754-46.12207,12.97168-57.13476C333.41323,235.94139,330.71694,232.36717,327.47378,230.36717Zm.99805,31.22071c-3.67676,15.71191-7.6211,26.667-11.72364,32.56054l-1.64062-1.14257c2.29712-3.3003,4.55469-8.31055,6.75268-14.94825-4.15234,7.98291-9.178,14.21045-12.24438,12.97706-4.60547-1.85254-7.70483,1.41357-9.04883,3.31884a10.15589,10.15589,0,0,1,7.272.9336,5.585,5.585,0,0,1,2.75782,3.67285l-1.96289.38476a3.63772,3.63772,0,0,0-1.81836-2.33984,8.45991,8.45991,0,0,0-6.7168-.46387,9.57632,9.57632,0,0,1-9-1.57226,4.656,4.656,0,0,1-1.60059-4.47949c.42774-2.19043,2.2793-3.23633,4.23926-4.34375,2.39746-1.35352,4.876-2.75391,5.72559-6.45411.68457-2.97754-.0459-5.20312-.8916-7.78027-1.0918-3.32422-2.32813-7.09277-.80371-13.19434,2.74511-10.99511,11.0039-22.40429,20.85937-21.88671a13.83041,13.83041,0,0,1,2.90405.45947,4.30883,4.30883,0,0,1,3.824,1.90967,9.97089,9.97089,0,0,1,1.71338,1.77246C330.175,245.10546,330.6603,252.23436,328.47183,261.58788Z"/><path class="cls-1" d="M307.37539,244.32909a36.84685,36.84685,0,0,1,7.83716-5.14942A16.59625,16.59625,0,0,0,307.37539,244.32909Z"/><path class="cls-1" d="M93.92886,250.11327c-.20069-.00684-.40454-.00928-.59766-.02832a9.79846,9.79846,0,0,1-8.8291-10.6416c.01831-.20264.054-.4043.08594-.606-1.33179.45459-2.7.96436-4.14746,1.51709-2.58887.9873-5.47168,2.08691-8.74317,3.01953a38.31759,38.31759,0,0,0,19.96387,6.69141C92.43521,250.11473,93.18936,250.124,93.92886,250.11327Z"/><path class="cls-1" d="M292.43667,293.48241a7.02113,7.02113,0,0,0,4.91309,1.50976,15.3649,15.3649,0,0,1-5.80127-2.79687A3.16959,3.16959,0,0,0,292.43667,293.48241Z"/><path class="cls-1" d="M104.00991,241.28905a9.82375,9.82375,0,0,1-8.32153,8.73779,29.96353,29.96353,0,0,0,11.98755-3.75634,23.43172,23.43172,0,0,1,6.44629-2.502,36.46418,36.46418,0,0,0-10.23926-5.147A10.01029,10.01029,0,0,1,104.00991,241.28905Z"/><path class="cls-1" d="M90.79971,312.27245c12.86694-8.85254,10.94873-35.47168,6.62988-42.84131-6.93237-11.8291-36.34912-17.728-47.343-9.88477C34.91323,270.37206,79.46768,320.06883,90.79971,312.27245Z"/><path class="cls-2" d="M321.53115,237.28954a10.284,10.284,0,0,1,3.824,1.90967A4.30883,4.30883,0,0,0,321.53115,237.28954Z"/><path class="cls-2" d="M325.46987,242.17382a8.78832,8.78832,0,0,0-6.94726-3.34571c-.18457-.00976-.36914-.01465-.55176-.01465a10.90321,10.90321,0,0,0-2.7583.36621,36.84685,36.84685,0,0,0-7.83716,5.14942,33.86376,33.86376,0,0,0-6.3125,10.58447c5.093,1.62158,9.76441,6.09082,12.32593,11.86475a23.455,23.455,0,0,1-.6875,20.80566l-1.76953-.92969a21.49606,21.49606,0,0,0,.6289-19.06543c-2.34619-5.28662-6.582-9.35644-11.16308-10.78662-.25781.79834-.49072,1.59961-.69043,2.39893-1.38379,5.542-.292,8.86914.76367,12.08594.90039,2.74218,1.751,5.332.94141,8.85156-1.04688,4.56055-4.17676,6.32812-6.69141,7.749-1.86523,1.05274-3.02051,1.76172-3.26074,2.98828a2.46953,2.46953,0,0,0,.08838,1.31934,15.3649,15.3649,0,0,0,5.80127,2.79687,8.49393,8.49393,0,0,0,2.15429-.36035c.35279-.10986.70777-.20117,1.063-.27832,1.344-1.90527,4.44336-5.17138,9.04883-3.31884,3.06641,1.23339,8.092-4.99415,12.24438-12.97706q2.38257-7.1953,4.66431-16.9248C328.57339,252.374,328.20816,245.81835,325.46987,242.17382Z"/><path class="cls-2" d="M104.091,314.1953a12.52,12.52,0,0,0,2.14258,2.14551,11.20291,11.20291,0,0,1,8.73632-4.67188,11.37575,11.37575,0,0,1,7.55079,3.167c.206.1875.41015.37989.60253.57325,2.10059,2.10058,4.46778,3.35449,6.333,3.35449,2.47852,0,5.72852-1.6416,7.85059-3.26856a24.98918,24.98918,0,0,1,3.44238-2.33593,10.30691,10.30691,0,0,1,5.25391-1.27149c5.63354.11524,10.17993,2.78516,13.53271,7.92285a11.9928,11.9928,0,0,0,2.31348-.89892c-1.666-2.34912-8.02881-10.1167-18.46729-8.68408-3.13281.42968-6.4497,2.48535-13.55957,2.04492-3.92358-.24317-6.3916-1.75733-13.94336-2.13477-7.51147-.37549-9.34423-5.82129-8.21533-10.98681.30518-1.396.86865-3.51319,1.59033-6.05957l-.03027.04443C106.20718,297.56444,99.1437,307.93749,104.091,314.1953Z"/><path class="cls-2" d="M117.83413,233.69921c.08789.07226.16382.15136.25049.22412-1.50464-1.52881-2.77393-3.58252-6.05664-5.37354,1.9834,1.60449,3.92773,3.314,5.80615,5.14942Z"/><path class="cls-2" d="M182.84609,426.38768c-10.00952,1.57324-27.86108,2.19971-38.04418.0166-11.94629-2.561-12.93213-8.34814-18.24659-8.66113-3.61108-.21289-14.17627,8.59229-22.75488.07276-6.94971-6.90137-1.80029-17.34375,8.09692-22.14991l-.44409-1.30957c10.01978-3.397,25.22168-4.55468,38.62354,1.937,5.34472,1.51758,9.76367,3.11719,13.25146,3.82959,8.56494,1.75,15.519-11.40185,8.32031-11.40185-8.3706,0-24.9978,4.63135-33.293-7.063a22.992,22.992,0,0,1-3.94434-10.4624c-1.49.12012-2.96924.186-4.42676.186a60.59518,60.59518,0,0,1-11.05322-.91943c.12744,2.05664-.63062,6.81543-9.03052,11.17822-3.405,1.76856-17.36255,2.72461-21.7771-7.91943-3.52124-8.49121-.85376-12.47412,2.6084-14.66651l-.32861-.76074c1.49511-.64648,2.97168-1.248,4.38672-1.78906l.72436-.26416-.23022-.23486c9.58691-9.41016,18.63476-18.29688,26.65625-17.96289a10.91954,10.91954,0,0,1,7.04394,3.14013,22.08379,22.08379,0,0,0,3.06348-11.56787,15.05261,15.05261,0,0,1,2.2959-4.33594c4.71386-4.75781,10.95385-4.21045,15.31933-4.02246a20.02491,20.02491,0,0,1-8.7207-5.90136c-.76514.47607-1.5376,1.05468-2.4209,1.72851-2.21289,1.69629-5.916,3.67969-9.06543,3.67969-2.35669,0-5.096-1.37207-7.551-3.75781a13.22579,13.22579,0,0,1-6.20679,3.23047,13.599,13.599,0,0,1-2.97168.334,12.42023,12.42023,0,0,1-6.70117-1.92773,14.08089,14.08089,0,0,1-3.50488-3.209c-5.85645-7.4082,1.78613-18.63086,5.0498-23.42383.46973-.68945.85156-1.249,1.08984-1.64746a67.34622,67.34622,0,0,0,3.74219-7.90869c2.27564-7.48047,4.82129-15.57178,6.48462-20.9082.80518-4.88721,1.71631-9.90381,4.49268-14.48584a18.35748,18.35748,0,0,0-6.59766-11.61914c-20.43237-12.95117-46.67847-8.35645-62.949-.48535l-1.40333-1.15332c.917-3.5,4.24024-13.02491,13.81373-17.37256,7.01294-12.57862,15.864-28.92383,24.55615-38.37452,14.1018-15.334,38.5647-24.55761,38.5647-24.55761s1.3413-.646,3.12036-1.5044c-37.59912,4.79248-61.57666-.9375-76.57251-8.72021-7.30957,10.2998-7.33985,27.48926-6.64551,47.20605.6084,17.20606-.59668,31.30664-1.7627,44.94336-.41992,4.90625-.85351,9.98047-1.18457,15.043-.57617,8.67481-.75488,16.18945-.5625,23.64942.76465,29.6289,7.9209,59.19531,24.69922,102.05175,11.96289,30.56885,23.31543,47.63867,37.50855,56.17774a7.60138,7.60138,0,0,0,1.936.21093s-.01245.312-.00708.88428c.23413.126.46655.25684.70215.37842l.001.001a49.393,49.393,0,0,0,22.2539,5.30957c43.40332.89258,66.14649-11.78711,90.23535-25.20313,3.543-1.97363,7.207-4.01465,10.95313-6.02246A81.73741,81.73741,0,0,0,248.184,398.3535c-8.66944,4.36377-24.18628,12.15381-29.43628,14.65918C214.04971,415.25487,199.81362,423.72118,182.84609,426.38768ZM69.44839,241.90917a90.5324,90.5324,0,0,0,10.2793-3.42383c1.75586-.66992,3.415-1.30274,5.03418-1.8252a25.44331,25.44331,0,0,1,6.58593-1.34863A37.276,37.276,0,0,1,104.174,236.6162c4.35058,1.26465,8.52246,3.50586,13.52246,7.26269l-.71582,1.793c-2.96387-.34765-5.36524.85938-8.40821,2.38672-3.373,1.69141-7.57031,3.79785-13.75,4.04-.417.01953-.84375.0293-1.27734.0293-.65723,0-1.33008-.02246-2.00977-.06641a40.16769,40.16769,0,0,1-22.34375-8.02637,57.34712,57.34712,0,0,1-9.98144,1.51368l-.127-1.9961A55.30659,55.30659,0,0,0,69.44839,241.90917Zm-19.36182,17.6372c10.9939-7.84326,40.41065-1.94433,47.343,9.88477,4.31885,7.36963,6.23706,33.98877-6.62988,42.84131C79.46768,320.06883,34.91323,270.37206,50.08657,259.54637Z"/><path class="cls-2" d="M200.79873,242.62645c1.31275.32666,2.62476.6543,3.92359.97852-1.35694-.39844-2.65918-.76905-3.92579-1.12158C200.79605,242.53075,200.79971,242.57909,200.79873,242.62645Z"/><path class="cls-2" d="M124.98452,244.8286a15.84559,15.84559,0,0,1,9.8125-5.30908c.17066-.02539.34326-.04.51465-.06006-9.05713-.83008-12.36987-1.54492-16.29028-4.69678A20.12761,20.12761,0,0,1,124.98452,244.8286Z"/><path class="cls-2" d="M120.39907,315.67626a8.924,8.924,0,0,0-5.23486-2.00928c-.04883,0-.09668,0-.14551.00195a9.2003,9.2003,0,0,0-7.09961,3.74512A11.339,11.339,0,0,0,120.39907,315.67626Z"/><path class="cls-2" d="M155.60952,320.30077a12.92666,12.92666,0,0,0,1.79126-.07813c-2.93872-4.15722-6.6914-6.23779-11.43774-6.335a7.9528,7.9528,0,0,0-3.1792.53321A17.63681,17.63681,0,0,0,155.60952,320.30077Z"/><path class="cls-2" d="M199.81362,468.47362c27.09375-20.56836,51.59986-67.66553,54.178-72.71289A81.88644,81.88644,0,0,1,234.98452,409.664c-3.73144,2.001-7.38867,4.03809-10.92578,6.00781-23.52344,13.10059-45.78808,25.5-86.94238,25.5q-2.11963,0-4.30567-.04394a51.76728,51.76728,0,0,1-21.91015-4.94678v6.74316A64.76367,64.76367,0,0,0,124.45425,472.165C139.86611,490.87792,171.16714,490.21971,199.81362,468.47362Z"/><path class="cls-2" d="M151.09292,246.73046c-4.83789-4.12207-10.67285-6.03418-16.001-5.23243a13.762,13.762,0,0,0-9.365,5.61475c2.0022-1.17725,4.65455-1.73291,8.25513-2.21045,6.9065-.916,11.25195,3.85449,13.28394,7.625,1.82544,3.38672,6.81006,12.94922,11.83545,14.81348,6.80322,2.52344,16.17065-.60938,22.29126-3.70215,8.821-4.457,29.20043-13.2915,36.67456-15.855-1.56128-.51465-3.10035-1.01514-4.60279-1.49414-.57348.32129-1.43921.78857-2.53369,1.33154a45.7855,45.7855,0,0,1-19.76855,6.74024q-1.94532.17871-3.91016.17871a49.37763,49.37763,0,0,1-24.41894-6.81934l-.16211-1.62109c1.37963-1.20606,2.66967-2.29981,3.94726-3.28467a17.33059,17.33059,0,0,1,5.74194-3.54981,26.1414,26.1414,0,0,1,9.91822-2.144c.61133-.02832,1.24609-.03711,1.90722-.03711,2.92774,0,8.30372,1.0586,15.9795,3.14649,3.91211,1.06933,8.29882,2.374,13.03808,3.87695,2.5874.81836,5.28321,1.70068,8.04077,2.625,3.2229-1.40625,7.97876-5.083,7.32544-9.28613l-.92382.80371c-13.88868-8.02246-43.66114-11.43164-67.54688-2.95313l-1.10059-1.585a23.30909,23.30909,0,0,1,2.21241-2.26562c-8.35474,3.167-15.43213,7.33252-20.3711,8.17187a24.31157,24.31157,0,0,1,11.5503,5.59082Z"/><path class="cls-2" d="M99.1791,354.99217c18.28443-5.79248,33.99463-3.71191,57.08472-.64648,4.48022.59522,9.12012,1.209,14.14307,1.81982-10.59424-9.85058-22.25147-16.00048-30.79932-16.15478-4.12793-.11914-7.24024,1.19824-9.27246,3.7998l-1.5459.03614c-2.11133-2.45313-4.37891-3.69825-6.93262-3.80567C115.32339,339.793,107.51358,346.86473,99.1791,354.99217Z"/><path d="M342.43081,157.38671c2.79492-44.15821-20.41015-75.71-44.62207-80.98145C276.10171,29.0576,221.8146,11.666,196.06362,9.08592c-25.69921-2.584-44.48828,1.3877-55.83789,11.81055-11.4541-.5791-46.53613-5.542-46.89355-5.59277L92.257,16.65038l4.11914,10.80176c-1.34082.02929-3.626.03613-6.14648.043-7.64648.02247-19.20215.05665-28.89844.65332l-.91894,1.19336,3.36523,16.91211L48.424,48.21l-.81055,1.3418,5.584,14.96972L41.43276,65.65233l-.86425,1.27539L44.75894,81.291l-12.124.85938L31.757,83.46483,36.9689,99.02245l-11.20606,2.10742-.77734,1.25488c.2041.72364,4.96094,17.3877,10.58887,25.14453-10.64746,15.53223-14.69825,38.4336-11.40723,64.60157,2.75684,21.9209,10.46313,44.30078,20.1355,58.53759-.56226,8.59424-.73657,16.07178-.54566,23.49659.77149,29.8789,7.9668,59.6416,24.83594,102.72949,12.67529,32.38769,24.77319,49.89648,40.30762,58.28125v4.63379c-7.97168.79541-14.50635,9.0664-18.03711,16.793C83.25015,473.249,68.48648,504.457,68.338,504.7705l.05078.94921,57.75879,94.59571,1.76172-.10352,34.32177-74.6123h15.95362l32.48633,76.40527,1.57714.3623c.92481-.80664,92.835-81.00781,121.63282-109.80566l.18554-1.1582c-.07422-.14551-7.4707-14.77442-16.67285-33.93555-7.25439-15.11621-16.68432-24.66943-25.36963-25.80615-8.83618-29.36865-4.0166-84.26465-.29052-114.77783,10.81347,2.01562,25.17382-3.34522,32.56152-17.84961,6.18945-12.13672,19.84961-42.16114,13.041-58.80176-1.92431-4.68848-4.3916-8.2168-7.34106-10.53027l.009.00293C330.10171,229.40428,339.78823,199.07909,342.43081,157.38671ZM43.36148,102.02245l1.49414-.13672c1.33007,14.63086,6.19921,25.17383,14.88476,32.23144l-.94531,1.16407C49.77847,127.956,44.73062,117.07616,43.36148,102.02245Zm7.70312.29,1.45508-.36328c4.06836,16.30273,9.9082,25.30957,21.54883,33.23339l-.84375,1.24024C61.39273,128.36913,55.17983,118.80565,51.0646,102.31249Zm8.0957-.1543,1.45118-.37891c3.7705,14.45118,18.07031,26.3877,29.15722,29.16016l-.36328,1.45508C76.21792,129.09764,62.64956,115.53319,59.1603,102.15819Zm25.09961-26.3623,1.4375-.42774c7.709,25.84961,21.6377,45.51465,38.21387,53.95313,11.47363,5.84082,24.12012,6.3916,37.585,1.63867,1.62793-.57422,3.33594-1.23633,5.14453-1.93653,9.45508-3.6621,21.21973-8.2246,31.20313-3.49121l-.64258,1.35547c-9.39649-4.45117-20.832-.02343-30.01856,3.53418-1.81933.70508-3.53808,1.37012-5.18652,1.95215a54.25825,54.25825,0,0,1-18.09082,3.28516,45.03216,45.03216,0,0,1-20.67383-5.002C106.29019,122.03417,92.08608,102.03807,84.25991,75.79589Zm6.46875-5.65723,1.35547-.64453c19.39063,40.81543,36.90528,56.166,60.46485,52.94043a63.03743,63.03743,0,0,0,14.38476-4.16211c7.02734-2.68457,14.29688-5.459,25.209-4.33008l-.1543,1.49219c-10.55567-1.08985-17.33985,1.49707-24.51953,4.23926a64.23577,64.23577,0,0,1-14.7168,4.24707,43.51462,43.51462,0,0,1-5.87793.4082C120.32046,124.32909,104.18862,98.46678,90.72866,70.13866ZM191.34487,96.60057c-12.65722-6.98437-21.918-19.00879-26.07617-33.85937l1.44531-.4043c4.04786,14.46,13.05274,26.16211,25.35547,32.9502a47.14317,47.14317,0,0,0,36.46778,4.1289c12.26074-3.64843,20.31933-3.33008,26.13281,1.0293l-.90039,1.19922c-5.39453-4.04395-13.043-4.28809-24.80469-.791a48.033,48.033,0,0,1-13.71484,2.00391A49.39128,49.39128,0,0,1,191.34487,96.60057ZM171.66812,57.98339l1.3789-.58985c13.6836,32.02735,33.88574,40.50879,69.73047,29.292,9.26563-2.89941,14.834-1.64746,21.27539,4.79395L262.99233,92.54c-6.042-6.042-11.03125-7.15528-19.76757-4.42286-9.90625,3.10157-18.707,4.68458-26.54493,4.68458C195.81558,92.80175,181.756,81.59374,171.66812,57.98339ZM244.7062,115.335c23.876,20.73535,34.29883,40.584,38.4541,73.2373l-1.48828.18946c-4.10254-32.23926-14.38769-51.833-37.95019-72.29395Zm7.541-3.68945.91211-1.19141c27.90234,21.3418,42.89453,50.09277,44.55957,85.4541l-1.49805.07031C294.5773,161.08007,279.78237,132.706,252.24722,111.6455Zm8.50879-6.65625.873-1.21875c20.99317,15.0371,43.06641,36.36914,47.60743,80.57519l-1.49219.15234C303.26382,140.88573,281.47671,119.832,260.756,104.98925Zm7.916-5.43458.8086-1.26367c28.6455,18.32325,41.9707,37.50684,47.52636,68.42188l-1.47656.26562C310.05874,136.52733,296.92105,117.624,268.672,99.55467Zm1.09864-18.00878c-1.65821-2.76661-9.75-9.1543-21.1084-5.28028-11.42871,3.89551-21.00293,5.53614-29.05469,5.53614-24.44141,0-34.8877-15.09766-40.84375-28.02344l1.36328-.627c5.75684,12.49317,13.33789,20.46,23.17773,24.35547,11.54,4.56739,26.21875,3.69825,44.873-2.66113,12.24121-4.1709,21.05371,2.88477,22.87988,5.92871ZM165.882,107.23729c4.80469-2.04,9.77832-4.14355,19.53321-3.26367l-.13477,1.49414c-9.39355-.85156-14.17871,1.18359-18.81152,3.15039-3.72168,1.58106-7.56153,3.21192-13.59864,3.21192q-.7119,0-1.46386-.03125c-23.292-.97071-38.4209-19.95411-53.97266-48.15821l1.31445-.72461c21.16309,38.38477,36.38184,46.70313,52.72071,47.38477C158.02651,110.56542,161.8439,108.95311,165.882,107.23729Zm156.875,42.44434c-6.89746-25.92578-19.083-41.15137-44.96191-56.17481L278.549,92.21c26.26953,15.25,38.64355,30.72265,45.65722,57.08691ZM126.8771,597.67089l-56.5-92.53321c1.91406-4.04785,15.21-32.19043,22.30469-47.70312,4.84326-10.60108,11.31006-14.95752,16.21875-15.61914V478.5205l.15039.52636c7.95312,12.84033,30.64307,36.34815,51.2605,45.93555ZM315.591,458.333c8.11816,16.90429,14.834,30.2871,16.36426,33.32519-27.61036,27.48242-109.77442,99.375-119.9834,108.29492l-31.80127-74.793c48.33569-18.39257,97.97973-51.418,118.33252-78.78711l-.01953-1.21875a37.9401,37.9401,0,0,1-5.78565-11.373C300.36978,435.40477,309.00259,444.6035,315.591,458.333Zm-25.30371-25.47559a43.17171,43.17171,0,0,0,6.15722,12.92676c-20.543,27.1289-69.86816,59.73925-117.78125,77.81543H162.07632l-.03125-.01368c-20.40039-9.12207-43.07617-32.49121-51.14453-45.35156V436.18114a51.76728,51.76728,0,0,0,21.91015,4.94678q2.18848.04394,4.30567.04394c41.1543,0,63.41894-12.39941,86.94238-25.5,3.53711-1.96972,7.19434-4.00683,10.92578-6.00781a81.88644,81.88644,0,0,0,19.00708-13.90332c14.34888-14.165,19.4646-30.35889,22.58374-40.25684l.12207-.38476c3.43946-10.89844,5.01953-24.76172,6.25-42.124a19.45834,19.45834,0,0,0,6.83057,3.40381C286.00283,347.229,281.07241,403.20653,290.28726,432.85741ZM335.4855,240.9912c4.50586,11.01269-.34375,32.37109-12.97168,57.13476-7.15332,14.04493-21.17676,18.97852-31.335,16.59864a17.144,17.144,0,0,1-8.375-4.54l-1.71.63379c-1.24219,18.17773-2.79,32.56543-6.30469,43.69922l-.12109.38476c-3.35718,10.6543-9.06348,28.75635-26.48413,43.45117a81.73741,81.73741,0,0,1-14.14478,9.54883c-3.74609,2.00781-7.41016,4.04883-10.95313,6.02246-24.08886,13.416-46.832,26.09571-90.23535,25.20313a49.393,49.393,0,0,1-22.2539-5.30957l-.001-.001c-.2356-.12158-.468-.25244-.70215-.37842-.64844-.34912-1.29223-.71191-1.929-1.09521C93.77163,423.80467,82.41909,406.73485,70.4562,376.166,53.67788,333.30956,46.52163,303.74315,45.757,274.11425c-.19238-7.46-.01367-14.97461.5625-23.64942.33106-5.0625.76465-10.13672,1.18457-15.043,1.166-13.63672,2.3711-27.7373,1.7627-44.94336-.69434-19.71679-.66406-36.90625,6.64551-47.20605,14.99585,7.78271,38.97339,13.51269,76.57251,8.72021,24.645-3.14111,55.13891-10.80029,92.80444-25.37451,11.2002,14.72461,15.37793,29.89356,19.79883,45.94238,3.32519,12.07325,6.76465,24.5586,13.43457,37.24707,15.10058,28.72071,17.90722,52.8877,17.60351,68.10547l.9795,1.01953,9.42285.19043,1.02051-.99609c.03125-8.06543,1.80566-35.28125,23.30566-46.8584,6.31738-3.4082,12.0625-3.7207,16.61914-.90137C330.71694,232.36717,333.41323,235.94139,335.4855,240.9912Z"/><line class="cls-3" x1="105.64077" y1="317.41503" x2="105.64224" y2="317.41551"/><path d="M95.28433,356.00585l.23022.23486-.72436.26416c-1.415.541-2.89161,1.14258-4.38672,1.78906l.32861.76074.46436,1.0752c1.46972-.63477,2.91894-1.22656,4.291-1.751l.6272-.22851-.219.47851a31.78084,31.78084,0,0,1,5.85351,3.81153c3.8728,2.938,8.44971,6.40381,17.18213,8.022a60.59518,60.59518,0,0,0,11.05322.91943c1.45752,0,2.93677-.06591,4.42676-.186,14.90308-1.20313,30.91577-8.03467,37.78711-12.80225l.33594.03809c3.3457.39844,6.56152.75293,9.831,1.084l.20117-1.99023c-3.12329-.31543-6.20312-.65576-9.39721-1.03418l.23608-.24219c-11.52734-11.24707-24.14941-18.06445-33.76074-18.23828-4.26758-.08691-7.71192,1.18848-10.11817,3.68359-.178-.18115-.36059-.34375-.542-.51123a10.91954,10.91954,0,0,0-7.04394-3.14013C113.91909,337.709,104.87124,346.59569,95.28433,356.00585Zm33.50488-12.15918,1.5459-.03614c2.03222-2.60156,5.14453-3.91894,9.27246-3.7998,8.54785.1543,20.20508,6.3042,30.79932,16.15478-5.023-.61084-9.66285-1.2246-14.14307-1.81982-23.09009-3.06543-38.80029-5.146-57.08472.64648,8.33448-8.12744,16.14429-15.19921,22.67749-14.95117C124.4103,340.14842,126.67788,341.39354,128.78921,343.84667Zm-30.75,13.64306c18.62109-6.35791,34.40869-4.28906,57.96094-1.16162,4.16211.55274,8.46582,1.12207,13.08593,1.69043-8.2705,4.99121-24.74292,11.36328-39.10156,11.36328-15.77636,0-21.75293-4.53418-27.02636-8.53515A41.20293,41.20293,0,0,0,98.03921,357.48973Z"/><path d="M325.35513,239.19921a10.284,10.284,0,0,0-3.824-1.90967,13.83041,13.83041,0,0,0-2.90405-.45947c-9.85547-.51758-18.11426,10.8916-20.85937,21.88671-1.52442,6.10157-.28809,9.87012.80371,13.19434.8457,2.57715,1.57617,4.80273.8916,7.78027-.84961,3.7002-3.32813,5.10059-5.72559,6.45411-1.96,1.10742-3.81152,2.15332-4.23926,4.34375a4.656,4.656,0,0,0,1.60059,4.47949,9.57632,9.57632,0,0,0,9,1.57226,8.45991,8.45991,0,0,1,6.7168.46387,3.63772,3.63772,0,0,1,1.81836,2.33984l1.96289-.38476a5.585,5.585,0,0,0-2.75782-3.67285,10.15589,10.15589,0,0,0-7.272-.9336c-.35522.07715-.7102.16846-1.063.27832a8.49393,8.49393,0,0,1-2.15429.36035,7.02113,7.02113,0,0,1-4.91309-1.50976,3.16959,3.16959,0,0,1-.88818-1.28711,2.46953,2.46953,0,0,1-.08838-1.31934c.24023-1.22656,1.39551-1.93554,3.26074-2.98828,2.51465-1.4209,5.64453-3.18847,6.69141-7.749.80957-3.51953-.041-6.10938-.94141-8.85156-1.05566-3.2168-2.14746-6.54395-.76367-12.08594.19971-.79932.43262-1.60059.69043-2.39893,4.58105,1.43018,8.81689,5.5,11.16308,10.78662a21.49606,21.49606,0,0,1-.6289,19.06543l1.76953.92969a23.455,23.455,0,0,0,.6875-20.80566c-2.56152-5.77393-7.23291-10.24317-12.32593-11.86475a33.86376,33.86376,0,0,1,6.3125-10.58447,16.59625,16.59625,0,0,1,7.83716-5.14942,10.90321,10.90321,0,0,1,2.7583-.36621c.18262,0,.36719.00489.55176.01465a8.78832,8.78832,0,0,1,6.94726,3.34571c2.73829,3.64453,3.10352,10.20019,1.05469,18.959q-2.27709,9.73023-4.66431,16.9248c-2.198,6.6377-4.45556,11.648-6.75268,14.94825l1.64062,1.14257c4.10254-5.89355,8.04688-16.84863,11.72364-32.56054,2.18847-9.35352,1.70312-16.48242-1.40332-20.61621A9.97089,9.97089,0,0,0,325.35513,239.19921Z"/><path d="M111.45327,394.35643l.44409,1.30957.19849.585c10.03906-3.40625,25.48047-4.5,38.707,2.63379l.94922-1.75976c-.55322-.29834-1.11523-.56055-1.67529-.83155C136.675,389.80175,121.47305,390.95946,111.45327,394.35643Z"/><path d="M69.19155,244.03514a40.16769,40.16769,0,0,0,22.34375,8.02637c.67969.04395,1.35254.06641,2.00977.06641.43359,0,.86035-.00977,1.27734-.0293,6.17969-.24219,10.377-2.34863,13.75-4.04,3.043-1.52734,5.44434-2.73437,8.40821-2.38672l.71582-1.793c-5-3.75683-9.17188-5.998-13.52246-7.26269a37.276,37.276,0,0,0-12.82618-1.30469,25.44331,25.44331,0,0,0-6.58593,1.34863c-1.61914.52246-3.27832,1.15528-5.03418,1.8252a90.5324,90.5324,0,0,1-10.2793,3.42383,55.30659,55.30659,0,0,1-10.36523,1.64355l.127,1.9961A57.34712,57.34712,0,0,0,69.19155,244.03514Zm38.48438,2.23536a29.96353,29.96353,0,0,1-11.98755,3.75634,9.82375,9.82375,0,0,0,8.32153-8.73779,10.01029,10.01029,0,0,0-.127-2.66748,36.46418,36.46418,0,0,1,10.23926,5.147A23.43172,23.43172,0,0,0,107.67593,246.2705Zm-27.23535-5.916c1.44751-.55273,2.81567-1.0625,4.14746-1.51709-.032.20166-.06763.40332-.08594.606a9.79846,9.79846,0,0,0,8.8291,10.6416c.19312.019.397.02148.59766.02832-.7395.01074-1.49365.00146-2.26758-.04785A38.31759,38.31759,0,0,1,71.69741,243.374C74.9689,242.44139,77.85171,241.34178,80.44058,240.35448Z"/><path d="M200.16519,240.23046c-7.67578-2.08789-13.05176-3.14649-15.9795-3.14649-.66113,0-1.29589.00879-1.90722.03711a26.1414,26.1414,0,0,0-9.91822,2.144,28.48285,28.48285,0,0,0-5.74194,3.54981c-1.27759.98486-2.56763,2.07861-3.94726,3.28467l.16211,1.62109A49.37763,49.37763,0,0,0,187.2521,254.54q1.96435,0,3.91016-.17871a45.7855,45.7855,0,0,0,19.76855-6.74024c.74976-.457,1.49732-.9248,2.23731-1.42676.09741.03125.19873.06446.29638.09522,1.50244.479,3.04151.97949,4.60279,1.49414q3.58336,1.1814,7.32348,2.47021l.65235-1.89062q-2.432-.84009-4.79908-1.63086c-2.75756-.92432-5.45337-1.80664-8.04077-2.625C208.464,242.60448,204.0773,241.29979,200.16519,240.23046Zm10.541,5.18847a44.85512,44.85512,0,0,1-16.7749,6.56055,9.05531,9.05531,0,0,0,2.83057-1.40234,10.10587,10.10587,0,0,0,4.03686-7.95069c.001-.04736-.00268-.0957-.0022-.14306,1.26661.35253,2.56885.72314,3.92579,1.12158Q207.59341,244.448,210.7062,245.41893Zm-45.64062,1.25293c5.31811-4.55615,9.05761-6.90967,15.83325-7.46191a10.67368,10.67368,0,0,0-.5061,3.23144c0,4.13282,1.7705,7.35938,4.98339,9.085a9.53011,9.53011,0,0,0,3.72413.96778A46.40735,46.40735,0,0,1,165.06558,246.67186Z"/><path d="M158.99819,233.7119l1.10059,1.585c23.88574-8.47851,53.6582-5.06933,67.54688,2.95313l.92382-.80371.50293-.4375C224.72476,226.249,217.99429,216.291,198.35659,216.291c-9.66259,0-28.355,7.19385-37.146,15.15528A23.30909,23.30909,0,0,0,158.99819,233.7119Z"/><path d="M52.42983,233.80175l1.40333,1.15332c16.2705-7.8711,42.5166-12.46582,62.949.48535a18.35748,18.35748,0,0,1,6.59766,11.61914c-2.77637,4.582-3.6875,9.59863-4.49268,14.48584-.03052.186-.0625.37353-.093.55908a53.20413,53.20413,0,0,1-2.56543,10.82519c-1.46,3.72608-2.72021,6.88575-3.82617,9.52393a67.34622,67.34622,0,0,1-3.74219,7.90869c-.23828.39844-.62011.958-1.08984,1.64746-3.26367,4.793-10.90625,16.01563-5.0498,23.42383a14.08089,14.08089,0,0,0,3.50488,3.209,12.42023,12.42023,0,0,0,6.70117,1.92773,13.599,13.599,0,0,0,2.97168-.334,13.22579,13.22579,0,0,0,6.20679-3.23047c2.45507,2.38574,5.19433,3.75781,7.551,3.75781,3.14942,0,6.85254-1.9834,9.06543-3.67969.8833-.67383,1.65576-1.25244,2.4209-1.72851a20.02491,20.02491,0,0,0,8.7207,5.90136,19.58539,19.58539,0,0,0,5.90332,1.04395c.1211.00293.24219.0039.36328.0039a15.68927,15.68927,0,0,0,3.373-.3623c7.26367-1.583,11.89356-8.22363,12.084-17.33008A14.96345,14.96345,0,0,0,160.78335,290.083l-.63867,1.89453a12.99449,12.99449,0,0,1,9.24219,12.59375c-.14063,6.7666-2.9585,11.98291-7.5376,14.34033a11.9928,11.9928,0,0,1-2.31348.89892c-3.35278-5.13769-7.89917-7.80761-13.53271-7.92285a10.30691,10.30691,0,0,0-5.25391,1.27149,24.98918,24.98918,0,0,0-3.44238,2.33593c-2.12207,1.627-5.37207,3.26856-7.85059,3.26856-1.86523,0-4.23242-1.25391-6.333-3.35449-.19238-.19336-.39648-.38575-.60253-.57325a11.37575,11.37575,0,0,0-7.55079-3.167,11.20291,11.20291,0,0,0-8.73632,4.67188,12.52,12.52,0,0,1-2.14258-2.14551c-4.94727-6.25781,2.11621-16.63086,5.13281-21.05957l.03027-.04443c.48243-.70948.87549-1.28858,1.123-1.70166,1.87012-3.127,4.15332-8.64454,7.71289-17.73145a54.61671,54.61671,0,0,0,2.67774-11.22949c.85742-5.21778,1.666-10.14649,4.50488-14.65235l.07812-.14062c.11646-.18213.252-.34766.37622-.523a13.762,13.762,0,0,1,9.365-5.61475c5.32813-.80175,11.16309,1.11036,16.001,5.23243l1.29688-1.52149a24.31157,24.31157,0,0,0-11.5503-5.59082,19.19644,19.19644,0,0,0-5.52783-.15869c-.17139.02-.344.03467-.51465.06006a15.84559,15.84559,0,0,0-9.8125,5.30908,20.12761,20.12761,0,0,0-5.96313-10.06592c-.30323-.28467-.613-.56543-.93677-.83935-.08667-.07276-.1626-.15186-.25049-.22412h0c-1.87842-1.83545-3.82275-3.54493-5.80615-5.14942C100.81973,219.48192,88.20425,214.208,77.19253,214.208a26.1389,26.1389,0,0,0-10.949,2.22119C56.67007,220.77684,53.34683,230.30175,52.42983,233.80175Zm104.97095,86.42089a12.92666,12.92666,0,0,1-1.79126.07813,17.63681,17.63681,0,0,1-12.82568-5.87988,7.9528,7.9528,0,0,1,3.1792-.53321C150.70938,313.98485,154.46206,316.06542,157.40078,320.22264Zm-42.38208-6.55371c.04883-.00195.09668-.00195.14551-.00195a8.924,8.924,0,0,1,5.23486,2.00928,11.339,11.339,0,0,1-12.48,1.73779A9.2003,9.2003,0,0,1,115.0187,313.66893Zm-9.37646,3.74658-.00147-.00048Z"/><path class="cls-4" d="M281.672,188.76171l1.48828-.18946c-4.15527-32.65332-14.57812-52.50195-38.4541-73.2373l-.98437,1.13281C267.28433,136.9287,277.56948,156.52245,281.672,188.76171Z"/><path class="cls-4" d="M297.7189,195.90819c-1.665-35.36133-16.65723-64.1123-44.55957-85.4541l-.91211,1.19141c27.53515,21.06054,42.33008,49.43457,43.97363,84.333Z"/><path class="cls-4" d="M309.23648,184.34569c-4.541-44.206-26.61426-65.53809-47.60743-80.57519l-.873,1.21875c20.7207,14.84277,42.50781,35.89648,46.98828,79.50878Z"/><path class="cls-4" d="M317.007,166.71288c-5.55566-30.915-18.88086-50.09863-47.52636-68.42188l-.8086,1.26367c28.249,18.06934,41.38672,36.97266,46.8584,67.42383Z"/><path class="cls-4" d="M278.549,92.21l-.75391,1.29687c25.87891,15.02344,38.06445,30.249,44.96191,56.17481l1.44922-.38477C317.19253,122.9326,304.81851,107.46,278.549,92.21Z"/><path class="cls-4" d="M143.90542,135.65917a54.25825,54.25825,0,0,0,18.09082-3.28516c1.64844-.582,3.36719-1.24707,5.18652-1.95215,9.18653-3.55761,20.62207-7.98535,30.01856-3.53418l.64258-1.35547c-9.9834-4.73339-21.748-.17089-31.20313,3.49121-1.80859.7002-3.5166,1.36231-5.14453,1.93653-13.46484,4.75293-26.11133,4.20215-37.585-1.63867-16.57617-8.43848-30.50488-28.10352-38.21387-53.95313l-1.4375.42774c7.82617,26.24218,22.03028,46.23828,38.97168,54.86132A45.03216,45.03216,0,0,0,143.90542,135.65917Z"/><path class="cls-4" d="M146.87417,124.32909a43.51462,43.51462,0,0,0,5.87793-.4082,64.23577,64.23577,0,0,0,14.7168-4.24707c7.17968-2.74219,13.96386-5.32911,24.51953-4.23926l.1543-1.49219c-10.91211-1.12891-18.18165,1.64551-25.209,4.33008a63.03743,63.03743,0,0,1-14.38476,4.16211c-23.55957,3.22558-41.07422-12.125-60.46485-52.94043l-1.35547.64453C104.18862,98.46678,120.32046,124.32909,146.87417,124.32909Z"/><path class="cls-4" d="M98.74819,62.916l-1.31445.72461c15.55176,28.2041,30.68067,47.1875,53.97266,48.15821q.75293.03222,1.46386.03125c6.03711,0,9.877-1.63086,13.59864-3.21192,4.63281-1.9668,9.418-4.00195,18.81152-3.15039l.13477-1.49414c-9.75489-.87988-14.72852,1.22363-19.53321,3.26367-4.03808,1.71582-7.85547,3.32813-14.41308,3.06348C135.13,109.61913,119.91128,101.30077,98.74819,62.916Z"/><path class="cls-4" d="M59.74038,134.11717c-8.68555-7.05761-13.55469-17.60058-14.88476-32.23144l-1.49414.13672c1.36914,15.05371,6.417,25.93359,15.43359,33.25879Z"/><path class="cls-4" d="M74.06851,135.1826c-11.64063-7.92382-17.48047-16.93066-21.54883-33.23339l-1.45508.36328c4.11523,16.49316,10.32813,26.05664,22.16016,34.11035Z"/><path class="cls-4" d="M89.40542,132.39452l.36328-1.45508c-11.08691-2.77246-25.38672-14.709-29.15722-29.16016l-1.45118.37891C62.64956,115.53319,76.21792,129.09764,89.40542,132.39452Z"/><path class="cls-4" d="M228.965,100.8535c11.76172-3.49707,19.41016-3.25293,24.80469.791l.90039-1.19922c-5.81348-4.35938-13.87207-4.67773-26.13281-1.0293a47.14317,47.14317,0,0,1-36.46778-4.1289C179.76675,88.499,170.76187,76.79686,166.714,62.3369l-1.44531.4043c4.15821,14.85058,13.41895,26.875,26.07617,33.85937a49.39128,49.39128,0,0,0,23.90528,6.25684A48.033,48.033,0,0,0,228.965,100.8535Z"/><path class="cls-4" d="M216.67983,92.80175c7.8379,0,16.63868-1.583,26.54493-4.68458,8.73632-2.73242,13.72558-1.61914,19.76757,4.42286l1.06055-1.06055c-6.4414-6.44141-12.00976-7.69336-21.27539-4.79395-35.84473,11.2168-56.04687,2.73536-69.73047-29.292l-1.3789.58985C181.756,81.59374,195.81558,92.80175,216.67983,92.80175Z"/><path class="cls-4" d="M248.17788,74.84569c-18.6543,6.35938-33.333,7.22852-44.873,2.66113-9.83984-3.8955-17.42089-11.8623-23.17773-24.35547l-1.36328.627c5.956,12.92578,16.40234,28.02344,40.84375,28.02344,8.05176,0,17.626-1.64063,29.05469-5.53614,11.3584-3.874,19.45019,2.51367,21.1084,5.28028l1.2871-.77149C269.23159,77.73046,260.41909,70.67479,248.17788,74.84569Z"/></svg>